<svg xmlns="http://www.w3.org/2000/svg" width="120" height="30.514" viewBox="0 0 120 30.514"><g data-name="Grupo 10219"><g data-name="Grupo 10211" fill="#fff"><path data-name="Caminho 8306" d="M11.974 14.351a6.339 6.339 0 01-5.317 2.608 5.662 5.662 0 01-4.958-2.443 10.417 10.417 0 01-1.7-6.1 9.575 9.575 0 011.849-6.018 6 6 0 015.008-2.4 5.769 5.769 0 014.581 1.821l-1.144 1.183a4.34 4.34 0 00-3.5-1.505 4.3 4.3 0 00-3.546 1.78 7.739 7.739 0 00-1.385 4.876 9.614 9.614 0 001.31 5.225 4.041 4.041 0 003.578 2.083 5.049 5.049 0 004.112-2.083z"/><path data-name="Caminho 8307" d="M22.344 16.696h-9.1V.426h1.764v14.838h7.333z"/><path data-name="Retângulo 6247" d="M23.168.427h1.765v16.27h-1.765z"/><path data-name="Caminho 8308" d="M34.513 16.696h-1.619L28.766 4.434v12.262h-1.768V.426h1.831l4.868 14.453L38.503.426h1.818v16.27h-1.755V4.434z"/><path data-name="Caminho 8309" d="M45.029 9.898h4.766l-2.337-7.437zm1.7-9.471h1.714l5.4 16.27h-1.951l-1.733-5.543h-5.493l-1.746 5.542h-1.756z"/><path data-name="Caminho 8310" d="M63.754 1.92h-5.059v14.776h-1.76V1.92h-5.037V.426h11.856z"/><path data-name="Caminho 8311" d="M73.272 1.861h-6.927v5.542h5.525v1.362h-5.525v6.5h7.237v1.432h-9V.426h8.692z"/><path data-name="Caminho 8312" d="M82.537 16.696h-1.616L76.795 4.434v12.262h-1.763V.426h1.826l4.868 14.453 4.8-14.453h1.821v16.27h-1.763V4.434z"/><path data-name="Caminho 8313" d="M92.203 8.505h1.714a4.922 4.922 0 003.169-.945 3.087 3.087 0 001.172-2.533 3.027 3.027 0 00-.947-2.467 4.86 4.86 0 00-3.091-.783h-2.017zm0 1.351v6.84h-1.767V.427h4.414a5.568 5.568 0 013.867 1.229 4.427 4.427 0 011.373 3.485 4.312 4.312 0 01-1.587 3.3 6.578 6.578 0 01-4.531 1.42z"/><path data-name="Caminho 8314" d="M108.469 15.461a4.7 4.7 0 003.623-1.867 8.243 8.243 0 001.611-5.516 8.632 8.632 0 00-1.26-4.455 4.224 4.224 0 00-3.906-2.126 4.772 4.772 0 00-4.009 1.9 7.767 7.767 0 00-1.46 4.854 8.209 8.209 0 001.538 5.34 4.79 4.79 0 003.863 1.867m-.1 1.5a6.34 6.34 0 01-5.308-2.39 9.989 9.989 0 01-1.86-6.324 8.484 8.484 0 012.1-5.9 6.706 6.706 0 015.2-2.348 6.275 6.275 0 015.222 2.352 9.743 9.743 0 011.851 6.2 9 9 0 01-2.046 6 6.478 6.478 0 01-5.156 2.414"/><path data-name="Caminho 8315" d="M107.744 8.418L120 7.034v2.88z"/></g><g data-name="Grupo 10212" fill="#fff"><path data-name="Caminho 8316" d="M41.286 22.913h.681l1.133 5.8h-.583l-.291-1.555h-2.97l-.957 1.555h-.613zm.239.575l-1.961 3.175h2.568z"/><path data-name="Caminho 8317" d="M49.74 23.593a2.594 2.594 0 00-1.172-.283c-.64 0-1.389.3-1.389 1.082 0 1.006 2.136 1.113 2.136 2.611a1.95 1.95 0 01-2.136 1.813 2.942 2.942 0 01-1.462-.317l.173-.549a2.312 2.312 0 001.238.366c.784 0 1.614-.339 1.614-1.239 0-1.2-2.136-1.3-2.136-2.644 0-1.129.94-1.62 1.963-1.62a3.356 3.356 0 011.345.258z"/><path data-name="Caminho 8318" d="M51.266 23.526l.6-.208-.256 1.156h1.1l-.107.448h-1.089l-.449 2.1a4.153 4.153 0 00-.125.831.452.452 0 00.484.514.878.878 0 00.447-.115l-.049.449a1.18 1.18 0 01-.532.117c-.591 0-.923-.334-.923-.791a7.561 7.561 0 01.19-1.222l.408-1.881h-.85l.117-.448h.833z"/><path data-name="Caminho 8319" d="M54.916 24.376a1.622 1.622 0 011.687 1.819 2.414 2.414 0 01-2.354 2.621 1.687 1.687 0 01-1.694-1.846 2.408 2.408 0 012.361-2.594zm-.6 3.989c1.1 0 1.711-1.162 1.711-2.161 0-.8-.354-1.381-1.179-1.381-1.172 0-1.721 1.146-1.721 2.228a1.2 1.2 0 001.191 1.314z"/><path data-name="Caminho 8320" d="M57.65 25.231a7.572 7.572 0 00.117-.757h.522a3.868 3.868 0 01-.093.642h.02a1.375 1.375 0 011.179-.74 2.482 2.482 0 01.457.056l-.122.559a1.2 1.2 0 00-.452-.068c-.857 0-1.2.94-1.355 1.7l-.432 2.088h-.551z"/></g><g data-name="Grupo 10213"><path data-name="Caminho 8321" d="M60.272 25.189a4.822 4.822 0 00.107-.717h.522a5.933 5.933 0 01-.09.642h.017a1.47 1.47 0 011.316-.74.959.959 0 011.062.946h.02a1.519 1.519 0 011.438-.946 1.136 1.136 0 011.2 1.246 4.517 4.517 0 01-.129.8l-.481 2.294h-.547l.471-2.244a3.515 3.515 0 00.11-.825c0-.464-.2-.822-.708-.822-.864 0-1.306.973-1.465 1.737l-.439 2.153h-.547l.471-2.244a3.515 3.515 0 00.11-.825c0-.464-.2-.822-.708-.822-.865 0-1.306.973-1.465 1.737l-.439 2.153h-.547z" fill="#fff"/></g><g data-name="Grupo 10214"><path data-name="Caminho 8322" d="M71.608 23.642a3.455 3.455 0 00-1.558-.332 2.761 2.761 0 00-2.886 2.869 2.041 2.041 0 002.046 2.136 2.385 2.385 0 001.133-.242l.405-2h-1.391l.117-.5h1.97l-.608 2.952a4.231 4.231 0 01-1.589.291 2.52 2.52 0 01-2.659-2.7 3.262 3.262 0 013.391-3.3 5.217 5.217 0 011.78.291z" fill="#fff"/></g><g data-name="Grupo 10215" fill="#fff"><path data-name="Caminho 8323" d="M72.638 26.744a1.96 1.96 0 00-.024.342 1.2 1.2 0 001.289 1.279 3 3 0 001.235-.282l-.039.507a3.106 3.106 0 01-1.265.226 1.617 1.617 0 01-1.743-1.73c0-1.423.83-2.71 2.192-2.71a1.4 1.4 0 011.5 1.577c0 .259-.034.526-.059.791zm2.593-.448c0-.117.025-.226.025-.326 0-.691-.293-1.146-.972-1.146a1.675 1.675 0 00-1.553 1.472z"/><path data-name="Caminho 8324" d="M78.46 24.376a1.622 1.622 0 011.689 1.819 2.414 2.414 0 01-2.349 2.621 1.69 1.69 0 01-1.7-1.846 2.407 2.407 0 012.36-2.594zm-.6 3.989c1.1 0 1.714-1.162 1.714-2.161 0-.8-.356-1.381-1.182-1.381-1.172 0-1.724 1.146-1.724 2.228a1.2 1.2 0 001.196 1.314z"/><path data-name="Caminho 8325" d="M87.842 23.593a2.928 2.928 0 00-1.4-.283 2.813 2.813 0 00-2.842 2.969 2.036 2.036 0 002.109 2.036 3.337 3.337 0 001.24-.19l-.068.508a3.282 3.282 0 01-1.128.183 2.551 2.551 0 01-2.729-2.545 3.324 3.324 0 013.452-3.458 3.469 3.469 0 011.563.3z"/></g><g data-name="Grupo 10216"><path data-name="Caminho 8326" d="M90.032 24.375a1.619 1.619 0 011.685 1.819 2.413 2.413 0 01-2.349 2.621 1.69 1.69 0 01-1.7-1.846 2.408 2.408 0 012.364-2.594zm-.6 3.989c1.1 0 1.714-1.162 1.714-2.161 0-.8-.356-1.381-1.182-1.381-1.172 0-1.719 1.146-1.719 2.228a1.2 1.2 0 001.186 1.314z" fill="#fff"/></g><g data-name="Grupo 10217"><path data-name="Caminho 8327" d="M92.707 25.189a4.822 4.822 0 00.107-.717h.522a5.3 5.3 0 01-.093.642h.02a1.471 1.471 0 011.318-.74.959.959 0 011.06.946h.02a1.523 1.523 0 011.44-.946 1.136 1.136 0 011.2 1.246 4.708 4.708 0 01-.127.8l-.483 2.294h-.547l.469-2.244a3.51 3.51 0 00.112-.825c0-.464-.2-.822-.708-.822-.864 0-1.309.973-1.465 1.737l-.439 2.153h-.547l.469-2.244a3.51 3.51 0 00.112-.825c0-.464-.2-.822-.708-.822-.864 0-1.309.973-1.465 1.737l-.439 2.153h-.547z" fill="#fff"/></g><g data-name="Grupo 10218" fill="#fff"><path data-name="Caminho 8328" d="M99.379 25.461a9.829 9.829 0 00.166-.989h.522a4.033 4.033 0 01-.088.632h.015a1.641 1.641 0 011.392-.73c.967 0 1.455.763 1.455 1.712 0 1.315-.723 2.728-2.153 2.728a1.271 1.271 0 01-1.265-.923h-.02l-.513 2.57h-.552zm1.309 2.9c1.089 0 1.577-1.3 1.577-2.278 0-.7-.3-1.264-1.03-1.264-1.006 0-1.611 1.3-1.611 2.2-.001.664.322 1.345 1.064 1.345z"/><path data-name="Caminho 8329" d="M106.365 27.709a6.01 6.01 0 00-.161 1h-.522c.024-.225.044-.441.083-.623h-.015a1.581 1.581 0 01-1.45.724 1.183 1.183 0 01-1.211-1.19c0-1.238 1.4-1.5 2.437-1.5a5.448 5.448 0 01.571.034 2.611 2.611 0 00.029-.425.827.827 0 00-.908-.914 2.965 2.965 0 00-1.26.366l.059-.533a3.526 3.526 0 011.284-.281 1.25 1.25 0 011.4 1.378 4.243 4.243 0 01-.107.807zm-1.88.656c.981 0 1.431-.881 1.548-1.77-.176 0-.342-.017-.518-.017-.708 0-1.851.107-1.851 1.04a.762.762 0 00.821.746z"/><path data-name="Caminho 8330" d="M107.929 25.147a5.574 5.574 0 00.1-.674h.527a3.79 3.79 0 01-.1.642h.02a1.657 1.657 0 011.348-.74 1.2 1.2 0 011.328 1.231 4.238 4.238 0 01-.122.873l-.474 2.235h-.552l.483-2.337a3.137 3.137 0 00.1-.74.747.747 0 00-.82-.814c-.918 0-1.406.907-1.606 1.879l-.415 2.012h-.547z"/><path data-name="Caminho 8331" d="M112.612 29.716a1.237 1.237 0 01-1.143.8.957.957 0 01-.5-.117l.122-.449a.457.457 0 00.342.117 1.025 1.025 0 00.811-.667l.352-.671-.6-4.251h.552l.435 3.651h.01l1.988-3.651h.562z"/></g></g></svg>