<?xml version="1.0" encoding="iso-8859-1"?>
<!-- Generator: Adobe Illustrator 19.0.0, SVG Export Plug-In . SVG Version: 6.00 Build 0)  -->
<svg version="1.1" id="Layer_1" xmlns="http://www.w3.org/2000/svg" xmlns:xlink="http://www.w3.org/1999/xlink" x="0px" y="0px"
	 viewBox="0 0 512 512" style="enable-background:new 0 0 512 512;" xml:space="preserve">
<g>
	<g>
		<path d="M256.001,95.44c-25.689,0-51.249,6.224-73.915,17.999c-3.889,2.021-5.403,6.811-3.384,10.7
			c2.021,3.888,6.808,5.404,10.7,3.384c20.708-10.757,43.115-16.212,66.599-16.212c79.782,0,144.69,64.908,144.69,144.69
			c0,45.941-22.163,89.603-59.287,116.797c-3.536,2.59-4.302,7.555-1.713,11.09c1.555,2.122,3.964,3.246,6.408,3.246
			c1.627,0,3.27-0.499,4.683-1.534c19.941-14.607,36.483-33.898,47.838-55.786c11.738-22.63,17.942-48.153,17.942-73.812
			C416.56,167.467,344.534,95.44,256.001,95.44z"/>
	</g>
</g>
<g>
	<g>
		<path d="M326.982,391.374c-1.832-3.98-6.544-5.722-10.527-3.887c-19.023,8.761-39.363,13.204-60.454,13.204
			c-79.782,0-144.69-64.908-144.69-144.69c0-44.031,19.705-85.14,54.064-112.786c3.414-2.748,3.955-7.742,1.208-11.157
			s-7.741-3.956-11.157-1.208c-38.122,30.674-59.986,76.289-59.986,125.151c0,88.533,72.027,160.56,160.56,160.56
			c23.4,0,45.974-4.932,67.094-14.66C327.074,400.067,328.815,395.354,326.982,391.374z"/>
	</g>
</g>
<g>
	<g>
		<path d="M256,0c-4.382,0-7.935,3.553-7.935,7.935v55.171c0,4.382,3.553,7.935,7.935,7.935s7.935-3.553,7.935-7.935V7.935
			C263.935,3.553,260.382,0,256,0z"/>
	</g>
</g>
<g>
	<g>
		<path d="M63.106,248.064H7.935C3.553,248.064,0,251.617,0,256s3.553,7.935,7.935,7.935h55.171c4.382,0,7.935-3.553,7.935-7.935
			S67.488,248.064,63.106,248.064z"/>
	</g>
</g>
<g>
	<g>
		<path d="M125.214,113.993L86.203,74.981c-3.099-3.099-8.123-3.099-11.222,0c-3.099,3.099-3.099,8.123,0,11.221l39.012,39.012
			c1.549,1.549,3.58,2.324,5.611,2.324c2.03,0,4.062-0.774,5.611-2.324C128.313,122.115,128.313,117.091,125.214,113.993z"/>
	</g>
</g>
<g>
	<g>
		<path d="M188.115,75.271l-21.506-50.807c-1.709-4.034-6.364-5.922-10.401-4.214c-4.035,1.709-5.923,6.365-4.214,10.401
			l21.506,50.807c1.282,3.026,4.22,4.844,7.312,4.844c1.032,0,2.08-0.202,3.089-0.63C187.936,83.963,189.823,79.307,188.115,75.271z
			"/>
	</g>
</g>
<g>
	<g>
		<path d="M82.122,172.109l-50.633-21.911c-4.021-1.74-8.694,0.11-10.434,4.131c-1.74,4.02,0.109,8.692,4.132,10.433l50.633,21.911
			c1.026,0.444,2.095,0.655,3.148,0.655c3.068,0,5.99-1.79,7.286-4.785C87.994,178.522,86.145,173.85,82.122,172.109z"/>
	</g>
</g>
<g>
	<g>
		<path d="M504.065,248.064h-55.171c-4.383,0-7.935,3.553-7.935,7.935s3.552,7.935,7.935,7.935h55.171
			c4.382,0,7.935-3.553,7.935-7.935S508.448,248.064,504.065,248.064z"/>
	</g>
</g>
<g>
	<g>
		<path d="M437.02,74.981c-3.099-3.098-8.122-3.1-11.222,0l-39.012,39.012c-3.1,3.098-3.1,8.122-0.001,11.221
			c1.55,1.55,3.58,2.324,5.612,2.324c2.03,0,4.062-0.774,5.612-2.324l39.012-39.012C440.119,83.103,440.119,78.079,437.02,74.981z"
			/>
	</g>
</g>
<g>
	<g>
		<path d="M355.792,20.251c-4.034-1.708-8.693,0.178-10.4,4.214l-21.506,50.807c-1.709,4.035,0.178,8.693,4.213,10.401
			c1.009,0.427,2.058,0.63,3.09,0.63c3.091,0,6.03-1.818,7.31-4.844l21.506-50.807C361.714,26.616,359.828,21.959,355.792,20.251z"
			/>
	</g>
</g>
<g>
	<g>
		<path d="M490.945,154.327c-1.74-4.021-6.416-5.871-10.434-4.13l-50.633,21.911c-4.023,1.74-5.872,6.413-4.13,10.434
			c1.296,2.995,4.217,4.785,7.286,4.785c1.052,0,2.121-0.211,3.148-0.655l50.633-21.911
			C490.837,163.021,492.686,158.349,490.945,154.327z"/>
	</g>
</g>
<g>
	<g>
		<path d="M256,440.959c-4.382,0-7.935,3.553-7.935,7.935v55.171c0,4.382,3.553,7.935,7.935,7.935s7.935-3.553,7.935-7.935v-55.171
			C263.935,444.512,260.382,440.959,256,440.959z"/>
	</g>
</g>
<g>
	<g>
		<path d="M125.214,386.786c-3.099-3.099-8.123-3.099-11.221,0l-39.012,39.011c-3.099,3.099-3.099,8.123,0,11.222
			c1.549,1.549,3.58,2.324,5.611,2.324c2.03,0,4.062-0.774,5.611-2.324l39.012-39.012
			C128.313,394.908,128.313,389.884,125.214,386.786z"/>
	</g>
</g>
<g>
	<g>
		<path d="M183.901,426.328c-4.035-1.708-8.692,0.179-10.4,4.214l-21.506,50.807c-1.709,4.035,0.178,8.693,4.214,10.401
			c1.01,0.427,2.058,0.63,3.089,0.63c3.091,0,6.03-1.818,7.311-4.844l21.506-50.807
			C189.823,432.694,187.937,428.037,183.901,426.328z"/>
	</g>
</g>
<g>
	<g>
		<path d="M86.254,329.457c-1.74-4.021-6.41-5.872-10.434-4.131l-50.633,21.912c-4.023,1.74-5.872,6.413-4.132,10.434
			c1.296,2.995,4.218,4.785,7.286,4.785c1.052,0,2.12-0.211,3.148-0.655l50.633-21.911
			C86.145,338.151,87.994,333.478,86.254,329.457z"/>
	</g>
</g>
<g>
	<g>
		<path d="M437.02,425.798l-39.012-39.012c-3.1-3.099-8.123-3.099-11.222,0c-3.099,3.099-3.099,8.123,0,11.221l39.011,39.012
			c1.55,1.549,3.581,2.324,5.612,2.324c2.03,0,4.062-0.774,5.612-2.324C440.119,433.92,440.119,428.896,437.02,425.798z"/>
	</g>
</g>
<g>
	<g>
		<path d="M360.005,481.347l-21.506-50.807c-1.707-4.036-6.367-5.921-10.4-4.214c-4.035,1.709-5.923,6.365-4.213,10.401
			l21.506,50.807c1.28,3.026,4.218,4.844,7.31,4.844c1.033,0,2.081-0.202,3.09-0.63C359.827,490.04,361.714,485.384,360.005,481.347
			z"/>
	</g>
</g>
<g>
	<g>
		<path d="M486.814,347.238l-50.633-21.911c-4.025-1.741-8.694,0.109-10.433,4.132c-1.741,4.021,0.109,8.694,4.13,10.434
			l50.633,21.911c1.026,0.444,2.094,0.654,3.146,0.654c3.068,0,5.99-1.79,7.286-4.785
			C492.686,353.65,490.836,348.978,486.814,347.238z"/>
	</g>
</g>
<g>
</g>
<g>
</g>
<g>
</g>
<g>
</g>
<g>
</g>
<g>
</g>
<g>
</g>
<g>
</g>
<g>
</g>
<g>
</g>
<g>
</g>
<g>
</g>
<g>
</g>
<g>
</g>
<g>
</g>
</svg>
