<?xml version="1.0" encoding="utf-8"?><svg xml:space="preserve" viewBox="0 0 100 100" y="0" x="0" xmlns="http://www.w3.org/2000/svg" id="圖層_1" version="1.1" width="353px" height="353px" xmlns:xlink="http://www.w3.org/1999/xlink" style="width:100%;height:100%;background-size:initial;background-repeat-y:initial;background-repeat-x:initial;background-position-y:initial;background-position-x:initial;background-origin:initial;background-color:initial;background-clip:initial;background-attachment:initial;animation-play-state:paused" ><g class="ldl-scale" style="transform-origin:50% 50%;transform:rotate(0deg) scale(0.8, 0.8);animation-play-state:paused" ><circle fill="#ffdc6c" clip-rule="evenodd" fill-rule="evenodd" r="14.3" cy="24.3" cx="26.2" style="fill:rgb(255, 220, 108);animation-play-state:paused" ></circle>
<path fill="#b5b5b5" d="M89.1 44.5c0 4.2-3.6 7.6-8 7.6H61.9c.5-1.3.8-2.7.8-4.1 0-4.7-2.9-8.8-7.1-10.5.1-.8.2-1.5.2-2.3 0-1.8-.3-3.5-.9-5 1.3-1 3-1.6 4.8-1.6.8 0 1.5.1 2.2.3 1.9-3.4 5.6-5.7 9.9-5.7C78 23.1 83 27.9 83 33.8c0 1.1-.2 2.2-.5 3.2 3.7.7 6.6 3.8 6.6 7.5zM52.9 39c.4-1.2.6-2.5.6-3.9 0-1.1-.1-2.1-.4-3.1-1.4-5.6-6.4-9.7-12.4-9.7-4.9 0-9.1 2.7-11.3 6.8-.8-.3-1.7-.4-2.6-.4-4.7 0-8.5 3.8-8.5 8.5 0 .6.1 1.2.2 1.7-4.3.7-7.6 4.4-7.6 8.9 0 5 4.1 9.1 9.1 9.1h31.4c3.5 0 6.6-2 8.1-5 .6-1.2 1-2.6 1-4.1 0-4.3-3.3-8-7.6-8.8z" style="fill:rgb(181, 181, 181);animation-play-state:paused" ></path>
<g style="animation-play-state:paused" ><g style="animation-play-state:paused" ><path fill="#77a4bd" d="M26.8 66l1.5-4c.4-1-.1-2.2-1.1-2.5-1-.4-2.2.1-2.5 1.1l-1.5 4c-.4 1 .1 2.2 1.1 2.5.2.1.5.1.7.1.7.1 1.5-.4 1.8-1.2z" style="fill:rgb(119, 164, 189);animation-play-state:paused" ></path></g>
<g style="animation-play-state:paused" ><path fill="#77a4bd" d="M34.4 72.3L38.3 62c.4-1-.1-2.2-1.1-2.5-1-.4-2.2.1-2.5 1.1l-3.9 10.3c-.4 1 .1 2.2 1.1 2.5.2.1.5.1.7.1.8.1 1.5-.4 1.8-1.2z" style="fill:rgb(119, 164, 189);animation-play-state:paused" ></path></g>
<g style="animation-play-state:paused" ><path fill="#77a4bd" d="M42 78.6l6.3-16.5c.4-1-.1-2.2-1.1-2.5-1-.4-2.2.1-2.5 1.1l-6.3 16.5c-.4 1 .1 2.2 1.1 2.5.2.1.5.1.7.1.8.1 1.5-.4 1.8-1.2z" style="fill:rgb(119, 164, 189);animation-play-state:paused" ></path></g>
<g style="animation-play-state:paused" ><path fill="#77a4bd" d="M56.4 67.3l1.9-5.1c.4-1-.1-2.2-1.1-2.5-1-.4-2.2.1-2.5 1.1l-1.9 5.1c-.4 1 .1 2.2 1.1 2.5.2.1.5.1.7.1.7 0 1.5-.4 1.8-1.2z" style="fill:rgb(119, 164, 189);animation-play-state:paused" ></path></g>
<g style="animation-play-state:paused" ><path fill="#77a4bd" d="M62.7 77.5l6.7-18.7c.4-1-.2-2.2-1.2-2.5-1-.4-2.2.2-2.5 1.2L59 76.2c-.4 1 .2 2.2 1.2 2.5.2.1.4.1.7.1.7 0 1.5-.5 1.8-1.3z" style="fill:rgb(119, 164, 189);animation-play-state:paused" ></path></g>
<g style="animation-play-state:paused" ><path fill="#77a4bd" d="M74 70.7l3.9-12.1c.3-1-.2-2.2-1.3-2.5-1-.3-2.2.2-2.5 1.3l-3.9 12.1c-.3 1 .2 2.2 1.3 2.5.2.1.4.1.6.1.8 0 1.6-.5 1.9-1.4z" style="fill:rgb(119, 164, 189);animation-play-state:paused" ></path></g>
<g style="animation-play-state:paused" ><path fill="#77a4bd" d="M18.3 88.7l5.9-15.9c.4-1-.1-2.2-1.2-2.5-1-.4-2.2.1-2.5 1.2l-5.9 15.9c-.4 1 .1 2.2 1.2 2.5.2.1.4.1.6.1.8 0 1.6-.5 1.9-1.3z" style="fill:rgb(119, 164, 189);animation-play-state:paused" ></path></g>
<g style="animation-play-state:paused" ><path fill="#77a4bd" d="M28.2 88.7l3.5-9.1c.4-1-.1-2.2-1.1-2.5-1-.4-2.2.1-2.5 1.1l-3.5 9.1c-.4 1 .1 2.2 1.1 2.5.2.1.5.1.7.1.7.1 1.5-.4 1.8-1.2z" style="fill:rgb(119, 164, 189);animation-play-state:paused" ></path></g>
<g style="animation-play-state:paused" ><path fill="#77a4bd" d="M38.2 88.7l.9-2.5c.4-1-.1-2.2-1.1-2.5-1-.4-2.2.1-2.5 1.1l-.9 2.5c-.4 1 .1 2.2 1.1 2.5.2.1.5.1.7.1.8.1 1.5-.4 1.8-1.2z" style="fill:rgb(119, 164, 189);animation-play-state:paused" ></path></g>
<g style="animation-play-state:paused" ><path fill="#77a4bd" d="M48.1 88.7l5.4-13.9c.4-1-.1-2.2-1.1-2.6-1-.4-2.2.1-2.6 1.1l-5.4 13.9c-.4 1 .1 2.2 1.1 2.6.3.2.5.2.7.2.8 0 1.6-.5 1.9-1.3z" style="fill:rgb(119, 164, 189);animation-play-state:paused" ></path></g>
<g style="animation-play-state:paused" ><path fill="#77a4bd" d="M69.2 84.6l2.7-7c.4-1-.1-2.2-1.1-2.5-1-.4-2.2.1-2.5 1.1l-2.7 7c-.4 1 .1 2.2 1.1 2.5.2.1.5.1.7.1.8.1 1.5-.4 1.8-1.2z" style="fill:rgb(119, 164, 189);animation-play-state:paused" ></path></g></g>
<path fill="#f8b26a" d="M36.9 63.1l8.6-12c.4-.6.1-1.7-.5-1.7H34.4c-.7 0-1.4.6-1.7 1.5l-7.5 18.4c-.1.3.1.7.3.7l11.9.1-2.8 6.7c-.2.5-.1 1.1.2 1.5.3.4.8.4 1.1 0l11.9-14.4c.3-.3.1-.9-.2-.9l-10.7.1z" style="fill:rgb(248, 178, 106);animation-play-state:paused" ></path>
<path fill="#f8b26a" d="M71.6 58.8l7.1-9.8c.4-.5.1-1.4-.4-1.4h-8.7c-.6 0-1.1.5-1.4 1.2l-6.1 15c-.1.3 0 .6.3.6l9.7.1-2.3 5.5c-.2.4-.1.9.2 1.2.3.3.6.3.9 0l9.7-11.8c.2-.3.1-.7-.2-.7l-8.8.1z" style="fill:rgb(248, 178, 106);animation-play-state:paused" ></path>
<metadata xmlns:d="https://loading.io/stock/" style="animation-play-state:paused" ><d:name style="animation-play-state:paused" >thunder storm</d:name>
<d:tags style="animation-play-state:paused" >sun,blizzard,hurricane,lightning,rain,cloud,thunder storm,weather</d:tags>
<d:license style="animation-play-state:paused" >pro</d:license>
<d:slug style="animation-play-state:paused" >x1y9eu</d:slug></metadata></g><!-- generated by https://loading.io/ --></svg>