<svg xmlns="http://www.w3.org/2000/svg" width="50" height="50" viewBox="0 0 50 50"><defs><style>.a{fill:#c9c9c9}</style></defs><path class="a" d="M12.146 34.915a1.172 1.172 0 01-1.655.048 1.172 1.172 0 01.048-1.655l2.314-2.314a1.172 1.172 0 011.655-.048 1.172 1.172 0 01-.048 1.655zm25 0a1.172 1.172 0 01-1.655.048 1.171 1.171 0 01.048-1.655l2.314-2.315a1.172 1.172 0 011.655-.048 1.172 1.172 0 01-.048 1.655zm-16.667 0a1.171 1.171 0 01-1.655.048 1.172 1.172 0 01.048-1.655l2.314-2.314a1.172 1.172 0 011.655-.048 1.171 1.171 0 01-.048 1.655zm8.334 0a1.172 1.172 0 01-1.655.048 1.171 1.171 0 01.048-1.655l2.314-2.315a1.172 1.172 0 011.655-.048 1.172 1.172 0 01-.048 1.655zm-16.667 7.954a1.172 1.172 0 01-1.655.048 1.172 1.172 0 01.048-1.655l2.314-2.314a1.172 1.172 0 011.655-.048 1.172 1.172 0 01-.048 1.655zm25 0a1.172 1.172 0 01-1.655.048 1.171 1.171 0 01.048-1.655l2.314-2.315a1.172 1.172 0 011.655-.048 1.172 1.172 0 01-.048 1.655zm-16.667 0a1.171 1.171 0 01-1.655.048 1.172 1.172 0 01.048-1.655l2.314-2.314a1.172 1.172 0 011.655-.048 1.171 1.171 0 01-.048 1.655zm8.334.001a1.172 1.172 0 01-1.655.048 1.171 1.171 0 01.048-1.655l2.314-2.315a1.172 1.172 0 011.655-.048 1.172 1.172 0 01-.048 1.655zm-1.804 2.792a1.172 1.172 0 00-1.655.048l-2.314 2.314a1.172 1.172 0 00-.048 1.655 1.172 1.172 0 001.655-.048l2.314-2.314a1.172 1.172 0 00.048-1.655z"/><path d="M43.466 27.699c-.1 0-.2 0-.3-.007H32.174c-.118 0-.236.009-.355.009H10.228a9.528 9.528 0 01-9.517-9.517q0-.244.012-.485c0-.033 0-.061.006-.089l.011-.146c.005-.082.011-.163.019-.244 0-.04.009-.079.014-.118l.02-.163c.008-.064.015-.129.025-.192.006-.042.014-.084.022-.127l.03-.17a4.82 4.82 0 01.062-.308l.037-.164c.011-.05.022-.1.035-.151s.028-.1.043-.156l.039-.139.043-.151c.015-.051.036-.111.055-.167 0 0 .076-.227.092-.271.022-.06.046-.121.07-.182 0 0 .079-.2.1-.243l.088-.2s.08-.18.1-.215c.036-.075.073-.146.109-.218 0 0 .079-.157.1-.188.043-.081.089-.16.135-.24l.088-.153c.052-.088.106-.171.159-.254l.082-.128c.057-.086.117-.17.177-.254l.082-.116c.063-.086.129-.17.2-.255l.077-.1c.072-.089.144-.173.217-.257l.077-.089c.074-.083.152-.167.232-.25l.071-.074c.083-.085.168-.167.254-.249l.067-.064c.088-.082.18-.163.272-.243l.058-.05c.1-.083.2-.162.295-.24l.056-.044c.1-.078.206-.155.312-.23l.027-.02c.128-.089.239-.164.352-.236l.039-.025q.173-.109.351-.211l.035-.02c.121-.069.244-.134.368-.2l.026-.013q.191-.1.386-.185l.028-.013a12.043 12.043 0 01.816-.319l.027-.009q.212-.072.43-.133a9.003 9.003 0 01.905-.21h.022q.22-.039.443-.068c.312-.04.631-.066.947-.075l.475-.014.182-.484.012-.047a9.491 9.491 0 01.821-2.255c.067-.129.126-.239.188-.347l.016-.029c.062-.107.126-.215.193-.321a9.628 9.628 0 01.933-1.247l.019-.022c.072-.081.147-.161.223-.241l.064-.067c.071-.074.143-.145.216-.215l.086-.082.215-.2.092-.08c.073-.063.148-.127.224-.189l.081-.064c.251-.2.513-.386.779-.557l.141-.09c.06-.037.121-.073.182-.108l.192-.111c.064-.036.13-.071.2-.106l.188-.1c.063-.032.128-.063.193-.094s.138-.063.206-.093l.187-.081c.077-.032.156-.062.234-.092l.169-.065c.132-.047.266-.093.4-.135l.113-.033c.1-.031.206-.061.311-.088l.162-.039c.09-.022.18-.043.27-.062l.176-.035.267-.048.179-.028c.091-.013.183-.024.276-.035l.173-.019c.1-.01.2-.016.305-.023l.149-.01c.153-.007.306-.012.46-.012s.308 0 .462.012l.151.01c.1.007.2.013.305.023l.177.019c.091.011.182.022.273.035l.184.029c.088.014.174.03.259.046l.189.038c.084.018.168.038.253.059l.182.045c.086.023.172.048.257.073l.17.05c.107.034.214.071.32.109.084.03.168.062.251.093l.041.016c.063.024.127.049.19.075l.15.066.24.108c.074.035.147.071.22.108l.16.082q.114.06.225.123l.14.08c.079.046.158.093.235.142l.092.059c.1.065.185.12.268.177l.047.033a9.574 9.574 0 011.472 1.269 9.507 9.507 0 012.6 6.109l.065 1.469 1.11-.964a6.67 6.67 0 014.375-1.637 6.684 6.684 0 016.676 6.677v.095l-.007.853.84-.147a5.88 5.88 0 011.016-.09 5.849 5.849 0 011.456.183 5.82 5.82 0 014.368 5.64 5.841 5.841 0 01-4.649 5.706c-.095.02-.19.037-.287.051-.134.02-.281.036-.45.049l-.178.013a3.314 3.314 0 01-.29.011z" fill="#f2f2f2"/><path class="a" d="M19.886 1.42c.133 0 .273 0 .427.011h.067l.074.005c.094.006.188.012.282.022l.123.013h.041c.085.01.169.02.25.032l.175.027c.079.013.158.027.239.043l.172.034c.079.017.157.035.232.053l.058.014.112.028c.08.021.159.045.238.068l.073.021.083.024c.1.032.2.066.3.1l.232.086.042.016.17.067c.054.022.089.039.134.059l.06.027.041.018.126.057c.069.032.136.066.2.1l.15.076c.07.037.139.075.21.115l.126.073c.074.043.147.087.218.131l.083.053.018.012c.079.05.157.1.237.157l.039.027a8.956 8.956 0 01.975.789v.081l.448.368a8.8 8.8 0 012.343 5.589l.131 2.938 2.22-1.929a5.964 5.964 0 013.91-1.462 5.971 5.971 0 015.966 5.956v.099l-.014 1.706 1.681-.3a5.173 5.173 0 01.893-.08 5.136 5.136 0 011.279.161 5.11 5.11 0 013.835 4.953 5.128 5.128 0 01-4.082 5.01 4.779 4.779 0 01-.651.088l-.1.008h-.035c-.082 0-.164.006-.246.006s-.162 0-.241-.006H32.154c-.108 0-.217.009-.326.009H10.237a8.817 8.817 0 01-8.807-8.807c0-.15 0-.3.012-.457v-.059l.007-.088v-.07c0-.074.01-.147.017-.222 0-.031.007-.063.012-.094l.012-.09.01-.082.022-.17c.005-.036.012-.07.018-.105l.016-.09.015-.089c.009-.048.017-.1.027-.147l.027-.119.018-.08.021-.091c.01-.044.019-.088.029-.127l.038-.138.022-.077.019-.07.037-.13c.013-.043.032-.1.048-.146l.024-.07.025-.075.037-.111c.02-.056.042-.111.064-.165l.024-.061.023-.06.043-.108.08-.182.02-.046.029-.064.042-.094.1-.2.016-.033.033-.065c.013-.026.026-.053.04-.078.04-.075.083-.148.132-.234l.032-.056.045-.078c.046-.078.1-.154.147-.234l.029-.046.045-.07c.052-.079.107-.157.164-.236l.036-.051.04-.056c.059-.08.12-.158.179-.233l.037-.047.038-.048c.065-.08.131-.158.2-.233l.038-.045.031-.036c.071-.08.145-.158.215-.232l.041-.043.027-.029c.077-.078.156-.155.238-.232l.03-.03.029-.028c.083-.077.167-.152.251-.224l.035-.03.023-.02c.088-.075.179-.148.276-.224l.016-.013.029-.023c.095-.073.192-.144.284-.209l.036-.025.013-.009c.1-.071.2-.139.308-.205l.022-.014.015-.01c.1-.065.212-.131.321-.193l.036-.02c.106-.061.221-.122.33-.178l.034-.017c.118-.059.239-.117.353-.168l.025-.011c.122-.055.248-.107.373-.157h.013c.12-.047.24-.091.359-.132h.005l.032-.011c.13-.044.263-.085.4-.123h.019c.131-.037.265-.071.4-.1h.011c.135-.031.274-.06.411-.084l.036-.007a8.854 8.854 0 011.271-.13l1.067-.035.266-1.034v-.043a8.752 8.752 0 01.753-2.068l.011-.022c.053-.1.108-.2.16-.295l.02-.035c.058-.1.117-.2.178-.3l.008-.013a8.887 8.887 0 01.854-1.139l.026-.029c.066-.074.134-.146.2-.213l.033-.034.033-.035c.065-.067.131-.133.2-.2l.078-.075c.067-.063.134-.125.2-.183l.057-.049.031-.027c.068-.059.137-.118.21-.177l.032-.025.042-.033c.231-.183.474-.357.719-.514l.061-.039.071-.045.166-.1.022-.012.016-.009.14-.081.184-.1.172-.088.183-.089c.063-.03.126-.057.189-.086l.024-.01.149-.065c.071-.03.144-.057.219-.086l.071-.028.08-.031c.128-.047.254-.089.369-.125l.031-.009.076-.022c.1-.028.191-.056.288-.082l.086-.021.064-.015c.083-.02.166-.04.247-.057l.166-.033a7.79 7.79 0 01.243-.043l.168-.026c.084-.012.169-.022.254-.032h.043l.117-.013c.094-.009.189-.015.287-.022h.135c.154-.007.293-.011.426-.011m0-1.42c-.165 0-.329 0-.493.012l-.16.011c-.11.007-.219.014-.328.025l-.187.021c-.1.011-.2.023-.3.038l-.193.03q-.144.024-.286.051l-.19.038c-.1.021-.193.043-.29.067l-.175.043c-.113.03-.224.062-.335.095l-.121.035q-.218.068-.432.146l-.177.068-.255.1c-.068.028-.134.058-.2.087s-.147.065-.221.1l-.209.1-.2.1c-.071.038-.143.076-.213.115l-.182.1c-.073.043-.147.085-.219.13-.051.031-.1.065-.151.1a10.261 10.261 0 00-.836.6l-.087.069c-.082.066-.162.135-.242.2l-.1.086c-.079.07-.156.141-.233.214l-.091.086c-.078.076-.156.152-.231.231l-.07.073a11.91 11.91 0 00-.24.26l-.019.022a10.283 10.283 0 00-1 1.334v.005q-.108.171-.208.347l-.017.029q-.1.176-.193.355l-.01.019a10.168 10.168 0 00-.879 2.409v.007q-.516.016-1.018.081-.25.032-.5.077-.246.044-.487.1-.24.056-.476.123h-.006q-.234.066-.463.143h-.011q-.226.077-.448.163l-.017.007c-.146.057-.29.118-.432.182l-.022.01q-.21.1-.415.2l-.029.015c-.134.068-.266.139-.4.213l-.036.021q-.191.11-.377.226l-.043.027q-.181.116-.358.239l-.05.035a9.148 9.148 0 00-.337.249l-.057.045q-.16.125-.315.256l-.065.056c-.1.086-.2.173-.294.262l-.071.067q-.139.132-.273.268l-.076.08c-.085.089-.169.179-.251.271l-.081.093c-.078.09-.155.18-.23.273l-.085.107c-.071.09-.142.181-.21.274-.03.04-.058.082-.087.123-.065.09-.128.18-.19.273l-.089.138a11.103 11.103 0 00-.259.425l-.151.269c-.03.056-.058.113-.087.17-.045.088-.091.176-.133.266-.029.061-.056.123-.083.184-.039.088-.079.174-.116.263-.028.066-.053.133-.079.2-.034.086-.068.172-.1.259-.026.072-.049.145-.074.218s-.058.167-.084.252-.045.157-.067.236-.047.162-.068.244-.039.168-.058.252-.038.158-.054.238-.032.179-.048.269-.029.153-.04.23c-.014.1-.025.194-.037.291-.009.072-.02.144-.027.216-.011.11-.018.222-.026.333 0 .061-.011.12-.013.181q-.013.259-.013.521A10.227 10.227 0 0010.23 28.401h21.591c.129 0 .256 0 .384-.01h10.927c.111.006.224.009.336.009s.225 0 .336-.009h.154v-.01c.17-.012.339-.03.505-.055q.162-.025.322-.057a6.537 6.537 0 005.217-6.4 6.536 6.536 0 00-4.9-6.328 6.555 6.555 0 00-1.633-.206 6.6 6.6 0 00-1.139.1v-.1a7.387 7.387 0 00-7.386-7.387 7.355 7.355 0 00-4.841 1.811 10.19 10.19 0 00-2.789-6.565 10.278 10.278 0 00-1.583-1.364l-.049-.035a10.67 10.67 0 00-.272-.18l-.116-.074q-.125-.078-.253-.152l-.149-.086q-.12-.068-.243-.132l-.172-.088c-.078-.039-.156-.078-.236-.116-.064-.03-.13-.059-.195-.088s-.15-.068-.226-.1-.164-.065-.247-.1-.179-.068-.27-.1a12.7 12.7 0 00-.345-.117c-.06-.019-.121-.036-.182-.053-.092-.027-.184-.054-.277-.078-.064-.017-.13-.032-.2-.048a13.336 13.336 0 00-.272-.063l-.2-.04a12.396 12.396 0 00-.278-.05l-.2-.031c-.1-.014-.2-.026-.293-.037l-.19-.021c-.109-.01-.218-.018-.327-.025-.054 0-.108-.008-.163-.011a10.212 10.212 0 00-.5-.012z"/></svg>