<svg xmlns="http://www.w3.org/2000/svg" width="50" height="50" viewBox="0 0 50 50"><defs><style>.a{fill:#c9c9c9}</style></defs><path class="a" d="M11.364 37.433a1.172 1.172 0 01-1.136 1.2 1.172 1.172 0 01-1.136-1.2v-3.278a1.172 1.172 0 011.136-1.2 1.172 1.172 0 011.136 1.2zm29.545 0a1.172 1.172 0 01-1.136 1.2 1.172 1.172 0 01-1.136-1.2v-3.278a1.172 1.172 0 011.136-1.2 1.172 1.172 0 011.136 1.2zm-21.59 11.364a1.172 1.172 0 01-1.136 1.2 1.171 1.171 0 01-1.136-1.2v-3.278a1.171 1.171 0 011.136-1.2 1.172 1.172 0 011.136 1.2zm13.636 0a1.172 1.172 0 01-1.137 1.2 1.172 1.172 0 01-1.136-1.2v-3.278a1.172 1.172 0 011.136-1.2 1.172 1.172 0 011.137 1.2zm-6.818-9.091a1.172 1.172 0 01-1.136 1.2 1.171 1.171 0 01-1.136-1.2v-3.278a1.171 1.171 0 011.136-1.2 1.172 1.172 0 011.136 1.2z"/><path d="M43.465 27.699c-.105 0-.21 0-.314-.009H32.172c-.118 0-.236.009-.355.009H10.226a9.528 9.528 0 01-9.517-9.517 9.468 9.468 0 019.225-9.509l.55-.017.121-.536A9.46 9.46 0 0119.884.711a9.5 9.5 0 019.506 9.086l.066 1.469 1.11-.965a6.669 6.669 0 014.375-1.636 6.684 6.684 0 016.676 6.676v.092l-.01.857.844-.148a5.879 5.879 0 011.016-.09 5.83 5.83 0 015.824 5.824 5.843 5.843 0 01-5.386 5.805l-.144.011a7.308 7.308 0 01-.296.007z" fill="#f2f2f2"/><path class="a" d="M19.886 1.42a8.787 8.787 0 018.8 8.408l.131 2.938 2.22-1.929a5.96 5.96 0 013.909-1.462 5.971 5.971 0 015.966 5.957v.092l-.021 1.713 1.688-.3a5.167 5.167 0 01.893-.08 5.12 5.12 0 015.114 5.114 5.13 5.13 0 01-4.729 5.1l-.1.008h-.009c-.092 0-.184.008-.277.008s-.185 0-.276-.008H32.15c-.108 0-.217.009-.326.009H10.233a8.817 8.817 0 01-8.806-8.807 8.754 8.754 0 012.491-6.136 8.761 8.761 0 016.045-2.664l1.1-.033.243-1.073a8.845 8.845 0 013.055-4.9 8.7 8.7 0 015.532-1.956m0-1.42a10.229 10.229 0 00-9.972 7.962A10.225 10.225 0 000 18.182 10.227 10.227 0 0010.227 28.41h21.591c.129 0 .256 0 .384-.01h10.912q.175.009.352.01c.118 0 .236 0 .352-.01h.138v-.011A6.533 6.533 0 0050 21.875a6.534 6.534 0 00-6.534-6.534 6.594 6.594 0 00-1.139.1v-.1a7.387 7.387 0 00-7.386-7.387A7.355 7.355 0 0030.1 9.765 10.227 10.227 0 0019.886 0z"/></svg>