<svg xmlns="http://www.w3.org/2000/svg" width="50" height="50" viewBox="0 0 50 50"><defs><style>.a{fill:#c9c9c9}</style></defs><path class="a" d="M6.818 48.796a1.172 1.172 0 01-1.137 1.2 1.172 1.172 0 01-1.136-1.2v-3.273a1.172 1.172 0 011.136-1.2 1.172 1.172 0 011.136 1.2zm22.727 0a1.171 1.171 0 01-1.136 1.2 1.172 1.172 0 01-1.136-1.2v-3.273a1.172 1.172 0 011.136-1.2 1.172 1.172 0 011.136 1.2zm-7.575 0a1.172 1.172 0 01-1.136 1.2 1.172 1.172 0 01-1.136-1.2v-3.273a1.172 1.172 0 011.136-1.2 1.172 1.172 0 011.136 1.2zm-7.576 0a1.172 1.172 0 01-1.136 1.2 1.172 1.172 0 01-1.136-1.2v-3.273a1.172 1.172 0 011.133-1.206 1.172 1.172 0 011.136 1.2z"/><path d="M28.408 34.624a13.044 13.044 0 01-13.029-13.029A13.043 13.043 0 0128.408 8.566a13.044 13.044 0 0113.029 13.029 13.044 13.044 0 01-13.029 13.029z" fill="#ffe269"/><path d="M28.408 9.272a12.333 12.333 0 0112.319 12.319A12.333 12.333 0 0128.408 33.91a12.333 12.333 0 01-12.319-12.319A12.333 12.333 0 0128.408 9.272m0-1.42a13.739 13.739 0 00-13.739 13.739A13.739 13.739 0 0028.408 35.33a13.739 13.739 0 0013.739-13.739A13.739 13.739 0 0028.408 7.852zm1.473-3.211a1.374 1.374 0 01-1.472 1.248 1.375 1.375 0 01-1.472-1.248V1.249A1.374 1.374 0 0128.409 0a1.374 1.374 0 011.472 1.249zm0 37.292a1.374 1.374 0 01-1.472 1.248 1.374 1.374 0 01-1.472-1.248v-3.392a1.374 1.374 0 011.472-1.248 1.374 1.374 0 011.472 1.248zm11.554-31.287a1.375 1.375 0 01-1.924-.158 1.375 1.375 0 01-.158-1.924l2.4-2.4a1.374 1.374 0 011.924.158 1.374 1.374 0 01.158 1.924zm-26.37 26.37a1.374 1.374 0 01-1.923-.158 1.374 1.374 0 01-.158-1.924l2.4-2.4a1.374 1.374 0 011.924.158 1.374 1.374 0 01.158 1.924zm30.294-13.953a1.374 1.374 0 01-1.248-1.472 1.374 1.374 0 011.248-1.472h3.392a1.374 1.374 0 011.248 1.472 1.374 1.374 0 01-1.248 1.472zm-6.005 11.554a1.375 1.375 0 01.158-1.924 1.374 1.374 0 011.923-.158l2.4 2.4a1.375 1.375 0 01-.158 1.924 1.375 1.375 0 01-1.924.158zM12.983 8.247a1.374 1.374 0 01.158-1.924 1.374 1.374 0 011.924-.158l2.4 2.4a1.375 1.375 0 01-.158 1.924 1.375 1.375 0 01-1.924.158zM8.066 23.063a1.374 1.374 0 01-1.248-1.472 1.374 1.374 0 011.248-1.472h3.392a1.374 1.374 0 011.248 1.472 1.374 1.374 0 01-1.248 1.472z" fill="#fecb2f"/><g><path d="M8.627 42.471h-.168A7.833 7.833 0 01.711 34.66a7.821 7.821 0 017.812-7.812l.749.016.118-.581a7.832 7.832 0 017.656-6.253 7.812 7.812 0 017.8 7.368l.043.775.768-.111a7.327 7.327 0 011.049-.077 7.253 7.253 0 017.244 7.244 7.253 7.253 0 01-7.244 7.245z" fill="#f2f2f2"/><path class="a" d="M17.045 20.738a7.1 7.1 0 017.09 6.7l.087 1.549 1.535-.222a6.615 6.615 0 01.947-.069 6.541 6.541 0 016.534 6.534 6.542 6.542 0 01-6.534 6.534H8.463a7.121 7.121 0 01-7.044-7.1 7.11 7.11 0 017.1-7.1h.143l1.185.023.235-1.162a7.12 7.12 0 016.96-5.684m0-1.42a8.525 8.525 0 00-8.352 6.822h-.171a8.523 8.523 0 00-8.522 8.522 8.522 8.522 0 008.453 8.521h18.252a7.954 7.954 0 007.954-7.955 7.954 7.954 0 00-7.954-7.954 8.046 8.046 0 00-1.151.084 8.523 8.523 0 00-8.508-8.038z"/></g></svg>