<svg xmlns="http://www.w3.org/2000/svg" width="50" height="50" viewBox="0 0 50 50"><defs><style>.a{fill:#ffe269}.b{fill:#fecb2f}.c{fill:#c9c9c9}</style></defs><path class="a" d="M30.113 31.83a11.958 11.958 0 01-11.944-11.944A11.957 11.957 0 0130.113 7.942a11.958 11.958 0 0111.944 11.944A11.958 11.958 0 0130.113 31.83z"/><path class="b" d="M30.113 8.652a11.247 11.247 0 0111.234 11.234A11.247 11.247 0 0130.113 31.12a11.247 11.247 0 01-11.234-11.234A11.247 11.247 0 0130.113 8.652m0-1.42a12.654 12.654 0 00-12.654 12.654 12.654 12.654 0 0012.654 12.655 12.654 12.654 0 0012.655-12.655A12.654 12.654 0 0030.113 7.232zm1.356-2.958a1.266 1.266 0 01-1.356 1.15 1.266 1.266 0 01-1.355-1.15V1.15A1.266 1.266 0 0130.113 0a1.266 1.266 0 011.356 1.15zm0 34.349a1.266 1.266 0 01-1.356 1.15 1.266 1.266 0 01-1.355-1.15v-3.124a1.266 1.266 0 011.355-1.15 1.266 1.266 0 011.356 1.15zM42.111 9.805a1.267 1.267 0 01-1.772-.145 1.267 1.267 0 01-.145-1.772l2.209-2.209a1.265 1.265 0 011.772.145 1.265 1.265 0 01.145 1.772zM17.823 34.094a1.265 1.265 0 01-1.772-.145 1.265 1.265 0 01-.145-1.772l2.209-2.209a1.267 1.267 0 011.772.145 1.266 1.266 0 01.145 1.772zm27.902-12.852a1.267 1.267 0 01-1.15-1.356 1.267 1.267 0 011.15-1.355h3.124a1.266 1.266 0 011.15 1.356 1.266 1.266 0 01-1.15 1.356zm-34.348 0a1.266 1.266 0 01-1.15-1.356 1.266 1.266 0 011.15-1.356h3.124a1.266 1.266 0 011.15 1.355 1.266 1.266 0 01-1.15 1.356zm28.817 10.642a1.267 1.267 0 01.146-1.772 1.267 1.267 0 011.772-.145l2.209 2.209a1.266 1.266 0 01-.146 1.772 1.266 1.266 0 01-1.772.145zM15.906 7.597a1.265 1.265 0 01.145-1.772 1.266 1.266 0 011.772-.145l2.209 2.209a1.267 1.267 0 01-.146 1.772 1.267 1.267 0 01-1.772.145z"/><path class="c" d="M6.036 45.712l-2.315 2.314a1.172 1.172 0 00-.048 1.655 1.172 1.172 0 001.655-.048l2.314-2.315a1.172 1.172 0 00.048-1.655 1.172 1.172 0 00-1.654.049zm24.382-.048a1.172 1.172 0 00-1.655.048l-2.314 2.314a1.172 1.172 0 00-.048 1.655 1.172 1.172 0 001.655-.048l2.315-2.315a1.172 1.172 0 00.047-1.654zm-9.231.048l-2.314 2.314a1.172 1.172 0 00-.048 1.655 1.172 1.172 0 001.655-.048l2.314-2.315a1.172 1.172 0 00.048-1.655 1.172 1.172 0 00-1.655.049z"/><path d="M10.239 42.425h-.187A9.444 9.444 0 01.71 33.007a9.43 9.43 0 019.419-9.419l.189.005.592.011.117-.58a9.443 9.443 0 019.231-7.54 9.418 9.418 0 019.4 8.884l.043.774.768-.111a8.849 8.849 0 011.266-.092 8.753 8.753 0 018.744 8.743 8.754 8.754 0 01-8.744 8.744z" fill="#f2f2f2"/><path class="c" d="M20.259 16.193a8.708 8.708 0 018.694 8.213l.087 1.549 1.535-.222a8.137 8.137 0 011.165-.085 8.042 8.042 0 018.033 8.033 8.043 8.043 0 01-8.033 8.034H10.058a8.732 8.732 0 01-8.637-8.707 8.719 8.719 0 018.709-8.709h.172l1.184.022.235-1.16a8.73 8.73 0 018.535-6.97m0-1.42a10.133 10.133 0 00-9.927 8.109c-.067 0-.134-.005-.2-.005A10.13 10.13 0 000 33.006a10.129 10.129 0 0010.046 10.128h21.693a9.454 9.454 0 009.454-9.455 9.454 9.454 0 00-9.454-9.454 9.529 9.529 0 00-1.368.1 10.129 10.129 0 00-10.112-9.552z"/><g><path class="a" d="M14.79 41.394l-1.72-1.12 6.26-5.487-2.981 4.448 2.563 1.284-7.132 6.23z"/><path class="b" d="M15.723 38.893l-.413.616 1.441.722.9.449-3.226 2.818.661-1.175.652-1.16-1.115-.726-.377-.245 1.48-1.3m7.213-8.211L11.9 40.357l1.948 1.268-4.708 8.374 11.039-9.642-2.789-1.4 5.549-8.279z"/></g></svg>