<svg xmlns="http://www.w3.org/2000/svg" width="50" height="50" viewBox="0 0 50 50"><defs><style>.b{fill:#fecb2f}</style></defs><g transform="translate(9.091 9.091)"><circle cx="15.199" cy="15.199" r="15.199" transform="translate(.71 .71)" fill="#ffe269"/><path class="b" d="M15.909 1.42a14.5 14.5 0 0114.489 14.489 14.5 14.5 0 01-14.489 14.489A14.5 14.5 0 011.42 15.909 14.5 14.5 0 0115.909 1.42m0-1.42A15.909 15.909 0 000 15.909a15.909 15.909 0 0015.909 15.909 15.909 15.909 0 0015.909-15.909A15.909 15.909 0 0015.909 0z"/></g><path class="b" d="M26.705 5.373a1.591 1.591 0 01-1.7 1.445 1.591 1.591 0 01-1.7-1.445V1.445A1.591 1.591 0 0125.005 0a1.591 1.591 0 011.7 1.445zm0 43.182a1.591 1.591 0 01-1.7 1.445 1.591 1.591 0 01-1.7-1.445v-3.928a1.591 1.591 0 011.691-1.445 1.591 1.591 0 011.7 1.445zm13.379-36.228a1.591 1.591 0 01-2.227-.184 1.591 1.591 0 01-.184-2.227l2.778-2.778a1.591 1.591 0 012.227.183 1.592 1.592 0 01.184 2.227zM9.549 42.861a1.591 1.591 0 01-2.227-.183 1.591 1.591 0 01-.183-2.227l2.777-2.778a1.591 1.591 0 012.227.184 1.591 1.591 0 01.183 2.227zm35.078-16.157a1.591 1.591 0 01-1.445-1.7 1.591 1.591 0 011.445-1.7h3.928a1.591 1.591 0 011.445 1.7 1.591 1.591 0 01-1.445 1.7zm-43.182 0A1.591 1.591 0 010 25.004a1.591 1.591 0 011.445-1.7h3.928a1.59 1.59 0 011.445 1.7 1.591 1.591 0 01-1.445 1.7zm36.229 13.38a1.591 1.591 0 01.184-2.227 1.591 1.591 0 012.227-.184l2.778 2.778a1.592 1.592 0 01-.184 2.227 1.592 1.592 0 01-2.228.184zM7.139 9.555a1.592 1.592 0 01.183-2.228 1.591 1.591 0 012.227-.183l2.777 2.778a1.591 1.591 0 01-.183 2.227 1.591 1.591 0 01-2.228.184z"/></svg>