<svg xmlns="http://www.w3.org/2000/svg" width="50" height="50" viewBox="0 0 50 50"><defs><style>.a{fill:#ffe269;}.b{fill:#fecb2f;}.c{fill:#c9c9c9;}.d{fill:#f2f2f2;}</style></defs><g transform="translate(1088 208)"><g transform="translate(-1077.773 -208)"><g transform="translate(7.232 7.232)"><path class="a" d="M-1012.1-156.155a11.958,11.958,0,0,1-11.944-11.944,11.957,11.957,0,0,1,11.944-11.944,11.958,11.958,0,0,1,11.944,11.944A11.958,11.958,0,0,1-1012.1-156.155Z" transform="translate(1024.754 180.753)"/><path class="b" d="M-1013.89-181.123a11.247,11.247,0,0,1,11.234,11.234,11.247,11.247,0,0,1-11.234,11.234,11.247,11.247,0,0,1-11.234-11.234,11.247,11.247,0,0,1,11.234-11.234m0-1.42a12.654,12.654,0,0,0-12.654,12.654,12.654,12.654,0,0,0,12.654,12.655,12.654,12.654,0,0,0,12.655-12.655,12.654,12.654,0,0,0-12.655-12.654Z" transform="translate(1026.544 182.543)"/></g><path class="b" d="M-984.061-203.726a1.266,1.266,0,0,1-1.356,1.15h0a1.266,1.266,0,0,1-1.355-1.15v-3.124a1.266,1.266,0,0,1,1.355-1.15h0a1.266,1.266,0,0,1,1.356,1.15Z" transform="translate(1005.303 208)"/><path class="b" d="M-984.061-82.818a1.266,1.266,0,0,1-1.356,1.15h0a1.266,1.266,0,0,1-1.355-1.15v-3.124a1.266,1.266,0,0,1,1.355-1.15h0a1.266,1.266,0,0,1,1.356,1.15Z" transform="translate(1005.303 121.441)"/><path class="b" d="M-945.35-184.636a1.267,1.267,0,0,1-1.772-.145h0a1.267,1.267,0,0,1-.145-1.772l2.209-2.209a1.265,1.265,0,0,1,1.772.145h0a1.265,1.265,0,0,1,.145,1.772Z" transform="translate(977.234 194.441)"/><path class="b" d="M-1030.846-99.14a1.265,1.265,0,0,1-1.772-.145h0a1.265,1.265,0,0,1-.145-1.772l2.209-2.209a1.267,1.267,0,0,1,1.772.145h0a1.266,1.266,0,0,1,.145,1.772Z" transform="translate(1038.442 133.234)"/><path class="b" d="M-929.944-140.061a1.267,1.267,0,0,1-1.15-1.356h0a1.267,1.267,0,0,1,1.15-1.355h3.124a1.266,1.266,0,0,1,1.15,1.356h0a1.266,1.266,0,0,1-1.15,1.356Z" transform="translate(965.442 161.303)"/><path class="b" d="M-1050.85-140.061a1.266,1.266,0,0,1-1.15-1.356h0a1.266,1.266,0,0,1,1.15-1.356h3.124a1.266,1.266,0,0,1,1.15,1.355h0a1.266,1.266,0,0,1-1.15,1.356Z" transform="translate(1052 161.303)"/><path class="b" d="M-947.267-101.349a1.267,1.267,0,0,1,.146-1.772h0a1.267,1.267,0,0,1,1.772-.145l2.209,2.209a1.266,1.266,0,0,1-.146,1.772h0a1.266,1.266,0,0,1-1.772.145Z" transform="translate(977.234 133.233)"/><path class="b" d="M-1032.763-186.844a1.265,1.265,0,0,1,.145-1.772h0a1.266,1.266,0,0,1,1.772-.145l2.209,2.209a1.267,1.267,0,0,1-.146,1.772h0a1.267,1.267,0,0,1-1.772.145Z" transform="translate(1038.442 194.441)"/></g><g transform="translate(-1084.646 -162.656)"><path class="c" d="M-1073.513-48.022l-2.315,2.314a1.172,1.172,0,0,0-.048,1.655,1.172,1.172,0,0,0,1.655-.048l2.314-2.315a1.172,1.172,0,0,0,.048-1.655A1.172,1.172,0,0,0-1073.513-48.022Z" transform="translate(1076.195 48.39)"/><path class="c" d="M-991.858-48.07a1.172,1.172,0,0,0-1.655.048l-2.314,2.314a1.172,1.172,0,0,0-.048,1.655,1.172,1.172,0,0,0,1.655-.048l2.315-2.315A1.172,1.172,0,0,0-991.858-48.07Z" transform="translate(1018.922 48.39)"/><path class="c" d="M-1020.18-48.022l-2.314,2.314a1.172,1.172,0,0,0-.048,1.655,1.172,1.172,0,0,0,1.655-.048l2.314-2.315a1.172,1.172,0,0,0,.048-1.655A1.172,1.172,0,0,0-1020.18-48.022Z" transform="translate(1038.013 48.39)"/></g><g transform="translate(-1088 -193.227)"><path class="d" d="M-1075.971-126.558l-.187,0a9.444,9.444,0,0,1-9.342-9.418,9.43,9.43,0,0,1,9.419-9.419l.189.005.592.011.117-.58a9.443,9.443,0,0,1,9.231-7.54,9.418,9.418,0,0,1,9.4,8.884l.043.774.768-.111a8.849,8.849,0,0,1,1.266-.092,8.753,8.753,0,0,1,8.744,8.743,8.754,8.754,0,0,1-8.744,8.744Z" transform="translate(1086.21 154.21)"/><path class="c" d="M-1067.741-154.58a8.708,8.708,0,0,1,8.694,8.213l.087,1.549,1.535-.222a8.137,8.137,0,0,1,1.165-.085,8.042,8.042,0,0,1,8.033,8.033,8.043,8.043,0,0,1-8.033,8.034h-21.429l-.253,0a8.732,8.732,0,0,1-8.637-8.707,8.719,8.719,0,0,1,8.709-8.709l.072,0,.1,0,1.184.022.235-1.16a8.73,8.73,0,0,1,8.535-6.97m0-1.42a10.133,10.133,0,0,0-9.927,8.109c-.067,0-.134-.005-.2-.005A10.13,10.13,0,0,0-1088-137.767a10.129,10.129,0,0,0,10.046,10.128v0h21.693a9.454,9.454,0,0,0,9.454-9.455,9.454,9.454,0,0,0-9.454-9.454,9.529,9.529,0,0,0-1.368.1A10.129,10.129,0,0,0-1067.741-156Z" transform="translate(1088 156)"/></g><g transform="translate(-1078.863 -177.318)"><g transform="translate(0 0)"><path class="a" d="M-1043.526-78.942l-1.72-1.12,6.26-5.487-2.981,4.448,2.563,1.284-7.132,6.23Z" transform="translate(1049.179 89.654)"/><path class="b" d="M-1049.252-91.789l-.413.616,1.441.722.9.449-3.226,2.818.661-1.175.652-1.16-1.115-.726-.377-.245,1.48-1.3m7.213-8.211-11.039,9.676,1.948,1.268-4.708,8.374,11.039-9.642-2.789-1.4,5.549-8.279Z" transform="translate(1055.838 100)"/></g></g></g></svg>