<svg xmlns="http://www.w3.org/2000/svg" width="50" height="50" viewBox="0 0 50 50"><defs><style>.a{fill:#c9c9c9;}.b{fill:#ffe269;}.c{fill:#fecb2f;}.d{fill:#f2f2f2;}</style></defs><g transform="translate(1308 208)"><g transform="translate(-1301.237 -162.656)"><path class="a" d="M-1281.513-48.022l-2.314,2.314a1.172,1.172,0,0,0-.048,1.655,1.172,1.172,0,0,0,1.655-.048l2.315-2.315a1.172,1.172,0,0,0,.048-1.655A1.172,1.172,0,0,0-1281.513-48.022Z" transform="translate(1284.195 48.39)"/><path class="a" d="M-1197.513-48.022l-2.315,2.314a1.172,1.172,0,0,0-.048,1.655,1.172,1.172,0,0,0,1.655-.048l2.314-2.315a1.172,1.172,0,0,0,.048-1.655A1.172,1.172,0,0,0-1197.513-48.022Z" transform="translate(1224.058 48.39)"/><path class="a" d="M-1225.513-48.022l-2.314,2.314a1.172,1.172,0,0,0-.048,1.655,1.172,1.172,0,0,0,1.655-.048l2.314-2.315a1.172,1.172,0,0,0,.048-1.655A1.172,1.172,0,0,0-1225.513-48.022Z" transform="translate(1244.104 48.39)"/><path class="a" d="M-1253.513-48.022l-2.314,2.314a1.172,1.172,0,0,0-.048,1.655,1.172,1.172,0,0,0,1.655-.048l2.314-2.315a1.172,1.172,0,0,0,.048-1.655A1.172,1.172,0,0,0-1253.513-48.022Z" transform="translate(1264.15 48.39)"/><path class="a" d="M-1167.858-48.07a1.172,1.172,0,0,0-1.655.048l-2.314,2.314a1.172,1.172,0,0,0-.048,1.655,1.172,1.172,0,0,0,1.655-.048l2.315-2.315A1.172,1.172,0,0,0-1167.858-48.07Z" transform="translate(1204.013 48.39)"/></g><g transform="translate(-1297.773 -208)"><g transform="translate(7.232 7.232)"><path class="b" d="M-1232.1-156.155a11.958,11.958,0,0,1-11.944-11.944,11.957,11.957,0,0,1,11.944-11.944,11.958,11.958,0,0,1,11.944,11.944A11.958,11.958,0,0,1-1232.1-156.155Z" transform="translate(1244.754 180.753)"/><path class="c" d="M-1233.89-181.123a11.246,11.246,0,0,1,11.234,11.234,11.247,11.247,0,0,1-11.234,11.234,11.247,11.247,0,0,1-11.234-11.234,11.247,11.247,0,0,1,11.234-11.234m0-1.42a12.654,12.654,0,0,0-12.654,12.654,12.654,12.654,0,0,0,12.654,12.655,12.654,12.654,0,0,0,12.655-12.655,12.654,12.654,0,0,0-12.655-12.654Z" transform="translate(1246.544 182.543)"/></g><path class="c" d="M-1204.062-203.726a1.266,1.266,0,0,1-1.356,1.15h0a1.266,1.266,0,0,1-1.356-1.15v-3.124a1.266,1.266,0,0,1,1.356-1.15h0a1.265,1.265,0,0,1,1.356,1.15Z" transform="translate(1225.303 208)"/><path class="c" d="M-1204.062-82.818a1.266,1.266,0,0,1-1.356,1.15h0a1.266,1.266,0,0,1-1.356-1.15v-3.124a1.266,1.266,0,0,1,1.356-1.15h0a1.266,1.266,0,0,1,1.356,1.15Z" transform="translate(1225.303 121.441)"/><path class="c" d="M-1165.35-184.636a1.267,1.267,0,0,1-1.772-.145h0a1.267,1.267,0,0,1-.145-1.772l2.209-2.209a1.265,1.265,0,0,1,1.772.145h0a1.265,1.265,0,0,1,.145,1.772Z" transform="translate(1197.234 194.441)"/><path class="c" d="M-1250.845-99.14a1.265,1.265,0,0,1-1.772-.145h0a1.266,1.266,0,0,1-.146-1.772l2.209-2.209a1.267,1.267,0,0,1,1.772.145h0a1.266,1.266,0,0,1,.146,1.772Z" transform="translate(1258.442 133.234)"/><path class="c" d="M-1149.943-140.061a1.266,1.266,0,0,1-1.15-1.356h0a1.266,1.266,0,0,1,1.15-1.355h3.124a1.266,1.266,0,0,1,1.15,1.356h0a1.266,1.266,0,0,1-1.15,1.356Z" transform="translate(1185.442 161.303)"/><path class="c" d="M-1270.85-140.061a1.266,1.266,0,0,1-1.15-1.356h0a1.266,1.266,0,0,1,1.15-1.356h3.124a1.266,1.266,0,0,1,1.15,1.355h0a1.266,1.266,0,0,1-1.15,1.356Z" transform="translate(1272 161.303)"/><path class="c" d="M-1167.266-101.349a1.267,1.267,0,0,1,.145-1.772h0a1.267,1.267,0,0,1,1.772-.145l2.209,2.209a1.266,1.266,0,0,1-.146,1.772h0a1.266,1.266,0,0,1-1.772.145Z" transform="translate(1197.234 133.233)"/><path class="c" d="M-1252.763-186.844a1.266,1.266,0,0,1,.146-1.772h0a1.266,1.266,0,0,1,1.772-.145l2.209,2.209a1.267,1.267,0,0,1-.146,1.772h0a1.267,1.267,0,0,1-1.772.145Z" transform="translate(1258.442 194.441)"/></g><g transform="translate(-1308 -193.227)"><path class="d" d="M-1262.744-126.511c-.106,0-.21,0-.314-.009h-10.978c-.118,0-.236.009-.355.009h-21.591a9.528,9.528,0,0,1-9.517-9.517q0-.244.012-.486l.017-.229c.006-.084.011-.167.019-.25,0-.039.026-.2.026-.2l.009-.072c.008-.066.016-.133.026-.2.007-.043.014-.085.022-.128l.03-.17c.01-.055.019-.111.03-.166s.022-.1.033-.147l.034-.149c.012-.053.024-.107.037-.16s.027-.1.042-.152l.041-.147c.014-.049.027-.1.042-.147s.037-.115.056-.172l.045-.134c.015-.044.029-.088.045-.132.023-.063.047-.124.072-.186,0,0,.078-.2.095-.241.029-.07.06-.138.091-.207,0,0,.078-.174.095-.21.036-.076.074-.15.112-.223l.093-.182c.045-.084.093-.167.141-.251l.082-.142c.052-.087.105-.17.159-.253l.083-.129c.057-.086.117-.17.177-.255l.081-.114c.063-.086.129-.17.2-.254l.078-.1c.07-.087.142-.171.215-.255l.074-.086c.077-.086.155-.17.235-.253l.07-.074c.083-.085.169-.168.255-.25l.064-.062c.091-.084.182-.166.275-.246l.059-.051c.1-.081.195-.161.294-.239l.052-.041c.1-.08.209-.157.315-.232l.045-.032c.11-.077.222-.151.335-.223l.038-.024q.174-.11.353-.212l.031-.018q.183-.1.37-.2l.026-.013q.191-.1.387-.185l.031-.014c.121-.054.256-.111.392-.164.152-.059.291-.11.432-.158s.294-.1.44-.137l.021-.006c.141-.039.268-.072.4-.1l.049-.012c.136-.032.287-.062.44-.09a9.6,9.6,0,0,1,1.411-.147l.55-.017.122-.536a9.458,9.458,0,0,1,.822-2.253c.063-.122.124-.234.187-.345a9.631,9.631,0,0,1,1.144-1.6c.087-.1.163-.18.24-.26l.062-.065q.107-.11.217-.216l.083-.08c.071-.067.144-.134.218-.2l.091-.079c.075-.064.15-.129.226-.191l.081-.064c.247-.2.509-.384.778-.556l.142-.091c.06-.037.122-.073.185-.11s.131-.077.189-.109l.2-.106c.062-.033.125-.065.188-.1s.129-.064.193-.094.137-.063.206-.093l.186-.081c.078-.032.157-.063.237-.093l.165-.064q.2-.072.4-.136l.111-.032c.1-.031.207-.061.313-.089l.163-.04c.09-.022.179-.043.27-.062l.177-.035q.133-.026.266-.047l.18-.028c.091-.013.183-.024.275-.035l.174-.019c.1-.01.2-.016.306-.023l.148-.01c.153-.007.306-.012.46-.012s.308,0,.462.012l.15.01c.1.007.205.013.307.023l.174.019c.093.011.185.022.277.035l.181.028c.089.015.178.031.267.048l.178.036c.088.019.178.04.266.062l.165.041c.1.026.194.054.289.082l.137.04c.139.044.278.09.413.14l.07.028c.113.042.225.086.335.132l.151.066c.082.036.165.073.247.112l.139.068c.1.05.175.088.249.127l.168.091c.07.039.14.079.21.121l.166.1c.068.043.137.087.2.132,0,0,.118.077.157.1.069.047.136.1.2.145l.146.105c.111.084.219.168.325.256l.158.135c.056.047.112.1.166.144l.171.16c.047.044.094.088.139.134s.1.1.151.153.1.1.146.153.1.11.149.164.09.1.135.156.1.113.142.171.072.091.107.136l.041.053c.039.05.078.1.116.151s.112.158.112.158c.17.24.329.489.476.744l.089.155c.037.067.073.137.109.206,0,0,.065.125.089.173.037.075.072.149.106.224q.038.082.075.166.05.114.1.229c.022.055.044.111.066.168.031.08.061.159.089.238l.066.2c.024.072.048.144.07.216l.042.148a9.51,9.51,0,0,1,.358,2.193l.066,1.469,1.11-.964a6.67,6.67,0,0,1,4.375-1.637,6.684,6.684,0,0,1,6.676,6.677l0,.092-.01.857.844-.148a5.879,5.879,0,0,1,1.016-.09,5.818,5.818,0,0,1,3.855,1.46c.09.079.178.161.263.245l.035.037a5.836,5.836,0,0,1,1.641,3.484l.009.117c.014.177.021.334.021.479a5.843,5.843,0,0,1-5.386,5.806l-.145.011C-1262.548-126.514-1262.646-126.511-1262.744-126.511Z" transform="translate(1306.21 154.21)"/><path class="a" d="M-1288.114-154.58c.133,0,.273,0,.426.011l.067,0,.075.005c.095.006.189.012.284.022l.12.013.041,0c.086.01.171.02.257.033l.164.026c.083.014.167.028.247.044l.165.033c.083.018.166.038.248.057l.054.013.1.025c.089.024.177.049.269.077l.066.019.058.017c.134.042.262.086.379.128l.068.026c.1.039.207.079.312.123l.072.032.063.028c.077.034.155.068.231.1l.126.062.026.013q.1.052.206.105l.153.084c.066.037.132.075.2.112l.155.093c.064.04.127.081.191.123l.039.026.106.07c.064.044.126.089.193.138l.067.048.064.047q.156.117.3.239l.057.049.061.053.026.023c.051.043.1.087.152.131l.1.089.041.039.023.021c.042.041.086.081.127.122s.094.094.14.142.09.094.137.144.092.1.134.147.086.1.126.146.089.1.134.161l.1.122.018.024.023.029c.036.046.071.092.1.136s.051.07.076.106l.031.043c.156.221.3.452.44.687l.033.057.048.084c.035.063.068.127.1.191l.007.013v0l.01.02c.022.042.044.084.066.128.034.068.066.138.1.205l.071.156c.031.071.061.141.089.211.021.052.042.1.063.159.028.073.056.146.081.218.013.035.024.07.035.1l.016.048.011.031c.022.066.044.131.064.2.007.022.012.044.019.066l.02.07a8.809,8.809,0,0,1,.331,2.03l.131,2.937,2.22-1.929a5.961,5.961,0,0,1,3.909-1.462,5.971,5.971,0,0,1,5.966,5.957v.016c0,.025,0,.051,0,.076l-.021,1.713,1.688-.3a5.165,5.165,0,0,1,.893-.08,5.1,5.1,0,0,1,3.384,1.281c.091.08.163.147.225.209l.039.041a5.117,5.117,0,0,1,1.44,3.055l0,.032.006.074c.013.159.019.3.019.423a5.13,5.13,0,0,1-4.729,5.1l-.1.008h-.008c-.092,0-.184.008-.277.008s-.185,0-.276-.008l-.038,0h-11.007c-.108,0-.217.009-.326.009h-21.591a8.817,8.817,0,0,1-8.807-8.807c0-.149,0-.3.011-.45,0-.02,0-.04,0-.06s.005-.065.008-.1l0-.062c.005-.076.01-.151.017-.225,0-.032.008-.063.012-.094l.012-.094.009-.074c.007-.059.014-.117.022-.176.005-.036.012-.07.018-.105l.016-.09.015-.089c.008-.048.016-.1.026-.145s.019-.084.029-.125l.018-.08.018-.078c.01-.046.02-.093.032-.139s.024-.087.036-.131l.023-.08.021-.074c.012-.042.023-.085.037-.128s.033-.1.049-.15l.023-.066.025-.074c.013-.037.025-.075.039-.114.02-.055.042-.11.064-.165l.022-.057.028-.071c.013-.033.026-.066.04-.1.026-.063.055-.126.083-.188l.018-.039.03-.066c.013-.03.027-.061.043-.094.032-.068.067-.134.1-.2l.014-.028.031-.062c.014-.027.027-.055.042-.082.042-.078.086-.155.131-.232l.035-.061c.013-.023.026-.046.042-.073.047-.078.1-.155.146-.233l.034-.054.042-.065c.053-.079.108-.157.164-.235l.036-.051.039-.054c.058-.08.119-.157.182-.237l.035-.045.037-.046c.065-.08.132-.159.2-.236l.036-.041.034-.039c.071-.08.144-.157.217-.234l.037-.039.028-.03c.077-.079.156-.155.238-.233l.03-.029.028-.026c.083-.077.168-.153.258-.23l.025-.021.026-.022c.089-.076.181-.149.28-.227l.014-.011.029-.023c.1-.074.193-.145.291-.214l.023-.016.019-.013c.1-.071.205-.14.3-.2l.03-.02.013-.008c.107-.068.216-.133.32-.193l.035-.02c.112-.064.227-.126.34-.183l.026-.013c.117-.059.237-.116.359-.171l.017-.008c.122-.055.248-.107.374-.157h0l.013,0c.124-.049.255-.1.387-.141l.008,0c.127-.043.256-.083.382-.119h0l.021-.006c.11-.032.222-.061.341-.089l.013,0,.072-.018c.134-.031.27-.059.406-.084l.036-.006a8.91,8.91,0,0,1,1.271-.13l1.1-.033.243-1.073a8.753,8.753,0,0,1,.759-2.083l.01-.02h0c.053-.1.106-.2.163-.3l.006-.01h0l0-.007a8.841,8.841,0,0,1,1.048-1.46l.009-.01,0,0c.068-.077.138-.152.209-.226l.021-.022.037-.039c.065-.068.132-.134.2-.2l.073-.07c.066-.063.133-.124.2-.185l.056-.048.03-.026c.069-.059.138-.119.21-.177l.024-.018.049-.039c.23-.182.472-.355.721-.515l.057-.037.072-.046c.057-.035.115-.068.172-.1l.018-.01.156-.09c.061-.034.122-.066.185-.1l.172-.088.179-.087c.063-.03.127-.058.191-.086l.04-.018.13-.056c.073-.03.147-.058.224-.088l.068-.027.082-.031c.126-.046.251-.088.372-.126l.03-.009.073-.021c.1-.029.191-.057.29-.083l.085-.02.064-.016c.083-.02.166-.04.248-.057l.165-.033c.082-.016.164-.031.245-.044l.167-.026c.084-.012.169-.022.255-.032l.042,0,.118-.013c.094-.009.189-.015.287-.022l.066,0,.07,0c.154-.007.293-.011.426-.011m0-1.42c-.165,0-.33,0-.493.012l-.16.011c-.11.007-.219.014-.328.025l-.187.021c-.1.011-.2.023-.3.037l-.193.03c-.1.016-.191.033-.286.051l-.19.038c-.1.021-.194.043-.29.067-.058.014-.117.027-.175.043-.113.03-.225.062-.337.1l-.119.035q-.218.068-.433.146c-.059.021-.117.045-.175.067-.086.033-.172.066-.257.1-.067.028-.133.058-.2.087s-.148.066-.222.1-.139.066-.208.1l-.2.1c-.071.037-.142.075-.212.114l-.182.105c-.073.042-.146.085-.218.129-.051.032-.1.065-.152.1a10.2,10.2,0,0,0-.836.6l-.086.068c-.082.067-.163.136-.243.2l-.1.085c-.079.07-.157.142-.235.215l-.088.084c-.079.076-.157.154-.234.233l-.067.07c-.082.086-.164.174-.243.263l-.014.016a10.236,10.236,0,0,0-1.216,1.7l-.012.021q-.1.179-.2.361l0,.01a10.14,10.14,0,0,0-.883,2.422h0a10.282,10.282,0,0,0-1.516.158h0q-.247.044-.489.1h0q-.241.056-.478.123h0q-.235.066-.464.144l-.009,0q-.228.077-.45.164l-.015.006q-.219.086-.434.182l-.02.009q-.211.1-.417.2l-.027.014q-.2.1-.4.214l-.035.02q-.192.11-.379.228l-.041.026q-.182.116-.359.24l-.048.034q-.172.121-.339.249l-.056.044q-.161.126-.317.257l-.063.055c-.1.086-.2.174-.3.264l-.07.067c-.093.088-.184.177-.273.268l-.076.079c-.085.089-.17.18-.252.272-.027.03-.053.062-.08.092-.078.09-.156.181-.231.274l-.084.107c-.071.09-.142.181-.21.274-.03.04-.058.081-.087.122-.064.09-.129.181-.19.274-.03.045-.059.092-.089.138-.058.09-.115.18-.17.271-.031.05-.059.1-.088.153-.052.089-.1.179-.152.27-.029.055-.057.112-.086.168-.046.089-.091.177-.134.267-.029.061-.056.123-.083.184-.04.087-.079.174-.117.263-.028.066-.053.133-.079.2-.034.086-.069.172-.1.259-.026.072-.049.145-.074.218s-.058.167-.084.252-.045.157-.067.236-.047.162-.068.244-.039.168-.058.252-.038.158-.054.238-.032.179-.048.269-.029.153-.04.23c-.015.1-.025.194-.037.291-.009.072-.02.144-.027.216-.011.11-.018.222-.025.333,0,.061-.011.12-.014.181q-.013.259-.013.521a10.227,10.227,0,0,0,10.227,10.228h21.591c.129,0,.256,0,.384-.01h10.912q.175.009.352.01h0q.177,0,.352-.01h.138v-.01a6.533,6.533,0,0,0,6.044-6.514h0c0-.181-.01-.361-.024-.538,0-.043-.006-.087-.01-.13a6.51,6.51,0,0,0-1.84-3.91l-.04-.042c-.095-.1-.194-.186-.295-.275a6.51,6.51,0,0,0-4.326-1.638h0a6.594,6.594,0,0,0-1.139.1c0-.034,0-.067,0-.1h0a7.387,7.387,0,0,0-7.386-7.387,7.355,7.355,0,0,0-4.841,1.811,10.216,10.216,0,0,0-.385-2.357c-.015-.053-.029-.106-.045-.158-.027-.09-.057-.178-.087-.267-.02-.059-.039-.119-.06-.178-.031-.086-.063-.171-.1-.255q-.035-.091-.071-.18c-.034-.083-.069-.165-.1-.247-.026-.06-.053-.119-.081-.179-.037-.08-.075-.161-.114-.24-.029-.059-.059-.116-.089-.174-.041-.079-.081-.157-.124-.235-.031-.056-.063-.11-.1-.165q-.237-.412-.511-.8c-.04-.057-.08-.115-.122-.171s-.1-.13-.148-.194-.089-.115-.135-.171-.1-.124-.154-.185-.1-.112-.145-.168-.105-.117-.159-.175-.1-.111-.157-.165-.107-.11-.162-.164-.115-.11-.173-.165-.107-.1-.161-.15-.137-.12-.206-.179c-.047-.04-.093-.082-.141-.121q-.172-.141-.349-.275c-.049-.037-.1-.072-.15-.108-.075-.055-.151-.109-.227-.162-.056-.038-.112-.074-.169-.112-.073-.048-.146-.1-.221-.141-.059-.036-.118-.072-.178-.107q-.112-.067-.227-.13l-.18-.1q-.119-.063-.24-.123c-.059-.029-.117-.059-.176-.087-.088-.041-.177-.081-.266-.12-.053-.024-.107-.048-.161-.071-.119-.05-.24-.1-.361-.142l-.075-.029c-.146-.053-.294-.1-.444-.15l-.147-.043c-.1-.031-.206-.061-.311-.088-.059-.016-.119-.029-.179-.044-.1-.023-.191-.046-.288-.066l-.191-.038q-.143-.027-.286-.051l-.194-.03c-.1-.014-.2-.026-.3-.038l-.188-.021c-.109-.011-.219-.018-.329-.025-.054,0-.107-.008-.162-.011-.164-.008-.329-.012-.5-.012Z" transform="translate(1308 156)"/></g></g></svg>