<?xml version="1.0" encoding="utf-8"?>
<!-- Generator: Adobe Illustrator 16.0.2, SVG Export Plug-In . SVG Version: 6.00 Build 0)  -->
<!DOCTYPE svg PUBLIC "-//W3C//DTD SVG 1.1//EN" "http://www.w3.org/Graphics/SVG/1.1/DTD/svg11.dtd">
<svg version="1.1" id="Capa_1" xmlns="http://www.w3.org/2000/svg" xmlns:xlink="http://www.w3.org/1999/xlink" x="0px" y="0px"
	 width="48px" height="38.745px" viewBox="-8.381 0 48 38.745" enable-background="new -8.381 0 48 38.745" xml:space="preserve">
<g>
	<path fill="#5E5E5E" d="M20.194,3.46c-4.612-4.613-12.12-4.613-16.733,0c-4.612,4.614-4.612,12.121,0,16.735
		c4.107,4.106,10.506,4.548,15.116,1.341c0.097,0.459,0.318,0.896,0.676,1.254l6.718,6.717c0.979,0.978,2.561,0.978,3.535,0
		c0.978-0.978,0.978-2.559,0-3.534l-6.718-6.72c-0.355-0.354-0.794-0.578-1.253-0.674C24.743,13.967,24.303,7.57,20.194,3.46z
		 M18.073,18.075c-3.444,3.443-9.05,3.443-12.492,0c-3.442-3.445-3.442-9.049,0-12.493c3.442-3.443,9.048-3.443,12.492,0
		C21.517,9.026,21.517,14.63,18.073,18.075z"/>
</g>
<g>
	<path fill="#5E5E5E" d="M-5.925,32.631c0.252-0.048,0.582-0.083,1.001-0.083c0.516,0,0.894,0.119,1.134,0.335
		c0.222,0.192,0.359,0.486,0.359,0.846c0,0.366-0.107,0.654-0.317,0.863c-0.276,0.294-0.726,0.444-1.235,0.444
		c-0.156,0-0.3-0.006-0.42-0.036v1.619h-0.522V32.631z M-5.403,34.575c0.114,0.03,0.264,0.042,0.432,0.042
		c0.636,0,1.014-0.312,1.014-0.857c0-0.54-0.378-0.798-0.954-0.798c-0.228,0-0.401,0.024-0.491,0.042V34.575z"/>
	<path fill="#5E5E5E" d="M-2.601,35.258c0.013,0.714,0.462,1.008,0.99,1.008c0.377,0,0.611-0.066,0.803-0.145l0.097,0.372
		c-0.187,0.084-0.51,0.186-0.972,0.186c-0.888,0-1.428-0.594-1.428-1.463c0-0.882,0.522-1.571,1.367-1.571
		c0.948,0,1.193,0.834,1.193,1.367c0,0.108-0.006,0.192-0.018,0.252L-2.601,35.258z M-1.06,34.88
		c0.007-0.33-0.138-0.857-0.726-0.857c-0.539,0-0.768,0.492-0.81,0.857H-1.06z"/>
	<path fill="#5E5E5E" d="M0.033,36.085c0.161,0.097,0.438,0.204,0.701,0.204c0.378,0,0.558-0.186,0.558-0.432
		c0-0.252-0.149-0.39-0.533-0.533c-0.528-0.192-0.774-0.474-0.774-0.822c0-0.468,0.384-0.852,1.002-0.852
		c0.294,0,0.552,0.078,0.708,0.181l-0.126,0.377c-0.114-0.065-0.324-0.167-0.594-0.167c-0.313,0-0.48,0.18-0.48,0.396
		c0,0.246,0.168,0.354,0.546,0.497c0.498,0.187,0.762,0.438,0.762,0.876c0,0.516-0.401,0.876-1.079,0.876
		c-0.318,0-0.612-0.084-0.815-0.204L0.033,36.085z"/>
	<path fill="#5E5E5E" d="M4.46,36.176H4.448c-0.155,0.281-0.479,0.51-0.947,0.51c-0.678,0-1.229-0.582-1.229-1.47
		c0-1.085,0.702-1.565,1.313-1.565c0.45,0,0.75,0.223,0.894,0.504H4.49l0.019-0.438h0.504c-0.019,0.24-0.024,0.491-0.024,0.798
		v3.292H4.46V36.176z M4.46,34.893c0-0.078-0.006-0.156-0.024-0.223c-0.084-0.323-0.359-0.6-0.756-0.6
		c-0.545,0-0.875,0.462-0.875,1.115c0,0.582,0.275,1.08,0.857,1.08c0.342,0,0.636-0.21,0.756-0.576
		c0.023-0.071,0.042-0.174,0.042-0.252V34.893z"/>
	<path fill="#5E5E5E" d="M8.287,35.828c0,0.3,0.006,0.564,0.024,0.792H7.844l-0.03-0.474H7.802c-0.132,0.233-0.444,0.54-0.96,0.54
		c-0.455,0-1.001-0.258-1.001-1.271v-1.697h0.527v1.601c0,0.552,0.174,0.93,0.647,0.93c0.354,0,0.6-0.245,0.696-0.485
		c0.029-0.072,0.048-0.168,0.048-0.27v-1.775h0.527V35.828z"/>
	<path fill="#5E5E5E" d="M9.416,33.183c-0.197,0-0.33-0.155-0.33-0.342c0-0.186,0.139-0.335,0.342-0.335
		c0.204,0,0.336,0.149,0.336,0.335c0,0.187-0.132,0.342-0.342,0.342H9.416z M9.164,36.62v-2.902h0.528v2.902H9.164z"/>
	<path fill="#5E5E5E" d="M10.497,36.085c0.161,0.097,0.438,0.204,0.701,0.204c0.378,0,0.558-0.186,0.558-0.432
		c0-0.252-0.149-0.39-0.533-0.533c-0.528-0.192-0.774-0.474-0.774-0.822c0-0.468,0.384-0.852,1.002-0.852
		c0.294,0,0.552,0.078,0.708,0.181l-0.126,0.377c-0.114-0.065-0.324-0.167-0.594-0.167c-0.313,0-0.48,0.18-0.48,0.396
		c0,0.246,0.168,0.354,0.546,0.497c0.498,0.187,0.762,0.438,0.762,0.876c0,0.516-0.401,0.876-1.079,0.876
		c-0.318,0-0.612-0.084-0.815-0.204L10.497,36.085z"/>
	<path fill="#5E5E5E" d="M13.244,35.258c0.013,0.714,0.462,1.008,0.99,1.008c0.377,0,0.611-0.066,0.803-0.145l0.097,0.372
		c-0.187,0.084-0.51,0.186-0.972,0.186c-0.888,0-1.428-0.594-1.428-1.463c0-0.882,0.522-1.571,1.367-1.571
		c0.948,0,1.193,0.834,1.193,1.367c0,0.108-0.006,0.192-0.018,0.252L13.244,35.258z M14.785,34.88
		c0.007-0.33-0.138-0.857-0.726-0.857c-0.539,0-0.768,0.492-0.81,0.857H14.785z"/>
	<path fill="#5E5E5E" d="M19.652,35.828c0,0.3,0.006,0.564,0.024,0.792h-0.468l-0.03-0.474h-0.012
		c-0.132,0.233-0.444,0.54-0.96,0.54c-0.455,0-1.001-0.258-1.001-1.271v-1.697h0.527v1.601c0,0.552,0.174,0.93,0.647,0.93
		c0.354,0,0.6-0.245,0.696-0.485c0.029-0.072,0.048-0.168,0.048-0.27v-1.775h0.527V35.828z"/>
	<path fill="#5E5E5E" d="M20.529,34.502c0-0.306-0.012-0.545-0.023-0.785h0.462l0.023,0.468h0.019
		c0.161-0.276,0.432-0.534,0.917-0.534c0.39,0,0.689,0.24,0.815,0.582h0.012c0.091-0.168,0.21-0.288,0.33-0.378
		c0.174-0.132,0.36-0.204,0.636-0.204c0.39,0,0.96,0.252,0.96,1.26v1.709h-0.517v-1.644c0-0.563-0.209-0.893-0.629-0.893
		c-0.306,0-0.534,0.222-0.63,0.474c-0.024,0.077-0.042,0.174-0.042,0.264v1.799h-0.516V34.88c0-0.468-0.204-0.797-0.605-0.797
		c-0.324,0-0.57,0.264-0.654,0.527c-0.029,0.078-0.042,0.168-0.042,0.258v1.751h-0.516V34.502z"/>
	<path fill="#5E5E5E" d="M26.805,32.362h0.528v4.258h-0.528V32.362z"/>
	<path fill="#5E5E5E" d="M29.39,36.686c-0.779,0-1.392-0.576-1.392-1.493c0-0.972,0.642-1.542,1.439-1.542
		c0.834,0,1.397,0.606,1.397,1.487c0,1.08-0.75,1.548-1.439,1.548H29.39z M29.407,36.29c0.504,0,0.882-0.474,0.882-1.133
		c0-0.492-0.246-1.109-0.869-1.109c-0.618,0-0.888,0.575-0.888,1.127c0,0.636,0.359,1.115,0.869,1.115H29.407z"/>
	<path fill="#5E5E5E" d="M33.577,36.518c-0.138,0.065-0.444,0.168-0.834,0.168c-0.875,0-1.445-0.594-1.445-1.487
		s0.612-1.548,1.56-1.548c0.312,0,0.588,0.078,0.731,0.156l-0.12,0.401c-0.126-0.065-0.323-0.138-0.611-0.138
		c-0.666,0-1.025,0.498-1.025,1.104c0,0.672,0.432,1.086,1.007,1.086c0.301,0,0.498-0.072,0.648-0.139L33.577,36.518z"/>
	<path fill="#5E5E5E" d="M36.247,35.924c0,0.252,0.013,0.497,0.042,0.695h-0.474l-0.048-0.366H35.75
		c-0.156,0.229-0.475,0.433-0.888,0.433c-0.588,0-0.888-0.414-0.888-0.834c0-0.701,0.624-1.085,1.745-1.079v-0.061
		c0-0.239-0.066-0.678-0.66-0.671c-0.275,0-0.558,0.077-0.761,0.216l-0.12-0.354c0.239-0.149,0.594-0.252,0.959-0.252
		c0.894,0,1.109,0.606,1.109,1.188V35.924z M35.732,35.138c-0.575-0.012-1.229,0.09-1.229,0.654c0,0.348,0.229,0.503,0.492,0.503
		c0.384,0,0.63-0.239,0.714-0.485c0.018-0.054,0.023-0.114,0.023-0.168V35.138z"/>
	<path fill="#5E5E5E" d="M37.094,32.362h0.528v4.258h-0.528V32.362z"/>
</g>
</svg>
