<?xml version="1.0" encoding="iso-8859-1"?>
<!-- Generator: Adobe Illustrator 16.0.0, SVG Export Plug-In . SVG Version: 6.00 Build 0)  -->
<!DOCTYPE svg PUBLIC "-//W3C//DTD SVG 1.1//EN" "http://www.w3.org/Graphics/SVG/1.1/DTD/svg11.dtd">
<svg version="1.1" id="Capa_1" xmlns="http://www.w3.org/2000/svg" xmlns:xlink="http://www.w3.org/1999/xlink" x="0px" y="0px"
	 width="611.998px" height="611.998px" viewBox="0 0 611.998 611.998" style="enable-background:new 0 0 611.998 611.998;"
	 xml:space="preserve">
<g>
	<path d="M611.998,327.252c-14.873-10.688-37.447-17.51-62.734-17.51c-39.152,0-71.82,16.348-79.42,38.09h-3.262
		c-7.414-21.883-40.182-38.375-79.504-38.375c-25.328,0-47.891,6.865-62.756,17.584v184.033c0,45.803-37.262,83.062-83.063,83.062
		c-45.802,0-83.063-37.26-83.063-83.062c0-10.121,8.202-18.322,18.323-18.322s18.323,8.201,18.323,18.322
		c0,25.594,20.822,46.416,46.417,46.416c25.594,0,46.416-20.822,46.416-46.416V327.34c-14.869-10.725-37.443-17.598-62.783-17.598
		c-39.153,0-71.821,16.348-79.42,38.09h-3.261c-7.415-21.883-40.183-38.375-79.504-38.375c-25.271,0-47.834,6.812-62.706,17.488
		C11.951,196.459,134.73,92.737,287.676,85.013V71.316c0-10.122,8.202-18.323,18.323-18.323s18.323,8.202,18.323,18.323v13.699
		C477.375,92.756,600.211,196.63,611.998,327.252z M44.264,52.993c0,0-26.561,52.432-26.561,67.101
		c0,14.668,11.892,26.561,26.561,26.561s26.561-11.892,26.561-26.561C70.825,105.424,44.264,52.993,44.264,52.993z M119.461,17.861
		c0,0-19.925,39.333-19.925,50.338s8.921,19.925,19.925,19.925s19.925-8.921,19.925-19.925S119.461,17.861,119.461,17.861z" fill="#9c27b0"/>
</g>
<g>
</g>
<g>
</g>
<g>
</g>
<g>
</g>
<g>
</g>
<g>
</g>
<g>
</g>
<g>
</g>
<g>
</g>
<g>
</g>
<g>
</g>
<g>
</g>
<g>
</g>
<g>
</g>
<g>
</g>
</svg>
